<?xml version="1.0" standalone="no"?><!DOCTYPE svg PUBLIC "-//W3C//DTD SVG 1.1//EN" "http://www.w3.org/Graphics/SVG/1.1/DTD/svg11.dtd"><svg class="icon" style="width: 5em; height: 5em;vertical-align: middle;fill: currentColor;overflow: hidden;" viewBox="0 0 1024 1024" version="1.1" xmlns="http://www.w3.org/2000/svg"><path d="M256 234.666667a21.333333 21.333333 0 0 0-21.333333 21.333333v170.666667a21.333333 21.333333 0 0 0 21.333333 21.333333h170.666667a21.333333 21.333333 0 0 0 21.333333-21.333333V256a21.333333 21.333333 0 0 0-21.333333-21.333333H256z m0-42.666667h170.666667A64 64 0 0 1 490.666667 256v170.666667a64 64 0 0 1-64 64H256A64 64 0 0 1 192 426.666667V256A64 64 0 0 1 256 192zM533.333333 298.666667a21.333333 21.333333 0 1 1 42.666667 0 106.666667 106.666667 0 1 0 213.333333 0 21.333333 21.333333 0 1 1 42.666667 0 149.333333 149.333333 0 0 1-298.666667 0zM256 576a21.333333 21.333333 0 0 0-21.333333 21.333333v170.666667a21.333333 21.333333 0 0 0 21.333333 21.333333h170.666667a21.333333 21.333333 0 0 0 21.333333-21.333333v-170.666667a21.333333 21.333333 0 0 0-21.333333-21.333333H256z m0-42.666667h170.666667a64 64 0 0 1 64 64v170.666667a64 64 0 0 1-64 64H256A64 64 0 0 1 192 768v-170.666667A64 64 0 0 1 256 533.333333zM597.333333 576a21.333333 21.333333 0 0 0-21.333333 21.333333v170.666667a21.333333 21.333333 0 0 0 21.333333 21.333333h170.666667a21.333333 21.333333 0 0 0 21.333333-21.333333v-170.666667a21.333333 21.333333 0 0 0-21.333333-21.333333h-170.666667z m0-42.666667h170.666667a64 64 0 0 1 64 64v170.666667a64 64 0 0 1-64 64h-170.666667a64 64 0 0 1-64-64v-170.666667a64 64 0 0 1 64-64z" fill="#758DFF" /></svg>