<?xml version="1.0" standalone="no"?><!DOCTYPE svg PUBLIC "-//W3C//DTD SVG 1.1//EN" "http://www.w3.org/Graphics/SVG/1.1/DTD/svg11.dtd"><svg class="icon" style="width: 5em; height: 5em;vertical-align: middle;overflow: hidden;" viewBox="0 0 1024 1024" version="1.1" xmlns="http://www.w3.org/2000/svg"><path d="M416.2 128.4c38.9 0 76.6 7.6 112.1 22.6 34.3 14.5 65.1 35.3 91.6 61.7 26.5 26.5 47.2 57.3 61.7 91.6 15 35.5 22.6 73.2 22.6 112.1 0 34.3-6 67.9-17.7 99.7-11.4 30.8-27.8 59.2-48.9 84.6-6.1 7.3-10.3 15.7-12.7 24.4-8.7 2.3-17.1 6.5-24.4 12.7-25.3 21.1-53.8 37.6-84.6 48.9-31.8 11.7-65.4 17.7-99.7 17.7-38.9 0-76.6-7.6-112.1-22.6-34.3-14.5-65.1-35.3-91.6-61.7s-47.2-57.3-61.7-91.6c-15-35.5-22.6-73.2-22.6-112.1s7.6-76.6 22.6-112.1c14.5-34.3 35.3-65.1 61.7-91.6 26.5-26.5 57.3-47.2 91.6-61.7 35.5-15 73.2-22.6 112.1-22.6m0-64c-194.4 0-352 157.6-352 352s157.6 352 352 352c85.7 0 164.2-30.6 225.2-81.5l232 232c6.2 6.2 14.4 9.4 22.6 9.4s16.4-3.1 22.6-9.4c12.5-12.5 12.5-32.8 0-45.3l-232-232c50.9-61 81.5-139.6 81.5-225.2 0-194.4-157.5-352-351.9-352zM416.2 128.4c38.9 0 76.6 7.6 112.1 22.6 34.3 14.5 65.1 35.3 91.6 61.7 26.5 26.5 47.2 57.3 61.7 91.6 15 35.5 22.6 73.2 22.6 112.1s-7.6 76.6-22.6 112.1c-14.5 34.3-35.3 65.1-61.7 91.6-26.5 26.5-57.3 47.2-91.6 61.7-35.5 15-73.2 22.6-112.1 22.6s-76.6-7.6-112.1-22.6c-34.3-14.5-65.1-35.3-91.6-61.7-26.5-26.5-47.2-57.3-61.7-91.6-15-35.5-22.6-73.2-22.6-112.1s7.6-76.6 22.6-112.1c14.5-34.3 35.3-65.1 61.7-91.6s57.3-47.2 91.6-61.7c35.5-15 73.2-22.6 112.1-22.6m0-64c-194.4 0-352 157.6-352 352s157.6 352 352 352 352-157.6 352-352-157.6-352-352-352z" fill="#fff" /></svg>