<?xml version="1.0" standalone="no"?><!DOCTYPE svg PUBLIC "-//W3C//DTD SVG 1.1//EN" "http://www.w3.org/Graphics/SVG/1.1/DTD/svg11.dtd"><svg class="icon" style="width: 5em; height: 5em;vertical-align: middle;overflow: hidden;" viewBox="0 0 1024 1024" version="1.1" xmlns="http://www.w3.org/2000/svg"><path d="M176 832c-8.8 0-16 7.2-16 16v48c0 8.8 7.2 16 16 16s16-7.2 16-16v-48c0-8.8-7.2-16-16-16zM832 144v688H192V144h640m16-32H176c-8.8 0-16 7.2-16 16v720c0 8.8 7.2 16 16 16h672c8.8 0 16-7.2 16-16V128c0-8.8-7.2-16-16-16zM848 832c-8.8 0-16 7.2-16 16v48c0 8.8 7.2 16 16 16s16-7.2 16-16v-48c0-8.8-7.2-16-16-16zM832 144v208H192V144h640m16-32H176c-8.8 0-16 7.2-16 16v240c0 8.8 7.2 16 16 16h672c8.8 0 16-7.2 16-16V128c0-8.8-7.2-16-16-16zM832 384v208H192V384h640m16-32H176c-8.8 0-16 7.2-16 16v240c0 8.8 7.2 16 16 16h672c8.8 0 16-7.2 16-16V368c0-8.8-7.2-16-16-16zM832 624v208H192V624h640m16-32H176c-8.8 0-16 7.2-16 16v240c0 8.8 7.2 16 16 16h672c8.8 0 16-7.2 16-16V608c0-8.8-7.2-16-16-16zM520 608h-16c-4.4 0-8 3.6-8 8v224c0 4.4 3.6 8 8 8h16c4.4 0 8-3.6 8-8V616c0-4.4-3.6-8-8-8zM456 688c-4.4 0-8 3.6-8 8v64c0 4.4 3.6 8 8 8s8-3.6 8-8v-64c0-4.4-3.6-8-8-8zM568 688c-4.4 0-8 3.6-8 8v64c0 4.4 3.6 8 8 8s8-3.6 8-8v-64c0-4.4-3.6-8-8-8z" fill="#000000" /></svg>