<?xml version="1.0" standalone="no"?><!DOCTYPE svg PUBLIC "-//W3C//DTD SVG 1.1//EN" "http://www.w3.org/Graphics/SVG/1.1/DTD/svg11.dtd"><svg class="icon" style="width: 5em; height: 5em;vertical-align: middle;fill: currentColor;overflow: hidden;" viewBox="0 0 1024 1024" version="1.1" xmlns="http://www.w3.org/2000/svg"><path d="M512 60c58.291 0 113.093 22.7 154.311 63.918s63.918 96.02 63.918 154.312c0 58.291-22.7 113.093-63.918 154.311S570.291 496.459 512 496.459s-113.093-22.7-154.311-63.918-63.917-96.02-63.917-154.311c0-58.292 22.7-113.094 63.918-154.312C398.907 82.7 453.709 60 512 60m0-60C358.339 0 233.771 124.567 233.771 278.229c0 153.662 124.567 278.229 278.229 278.229s278.229-124.567 278.229-278.229C790.229 124.567 665.661 0 512 0zM512 663.631c59.269 0 116.629 7.965 170.488 23.673 51.129 14.912 96.778 36.073 135.68 62.896 37.255 25.688 66.199 55.106 86.03 87.435 15.229 24.827 24.508 50.643 27.701 76.988-16.195 7.132-52.413 19.347-126.447 30.367C723.106 957.249 618.89 964 512 964c-106.89 0-211.106-6.751-293.452-19.01-74.035-11.021-110.252-23.235-126.448-30.367 3.193-26.346 12.473-52.161 27.701-76.988 19.831-32.328 48.775-61.746 86.031-87.435 38.901-26.823 84.55-47.984 135.679-62.896 53.86-15.708 111.22-23.673 170.489-23.673m0-60c-265.734 0-481.154 148.539-481.154 331.773C30.846 984.335 246.266 1024 512 1024s481.154-39.665 481.154-88.596c0-183.234-215.42-331.773-481.154-331.773z" fill="#000000" /></svg>